<svg xmlns="http://www.w3.org/2000/svg" viewBox="0 0 460.492 845.083"><defs><style>.a{fill:#008081;}</style></defs><g transform="translate(-0.14)"><circle class="a" cx="14.76" cy="14.76" r="14.76" transform="translate(47.066 233.027)"/><circle class="a" cx="14.76" cy="14.76" r="14.76" transform="translate(387.223 233.027)"/><circle class="a" cx="14.76" cy="14.76" r="14.76" transform="translate(134.092 208.783)"/><circle class="a" cx="14.76" cy="14.76" r="14.76" transform="translate(215.575 198.364)"/><circle class="a" cx="14.76" cy="14.76" r="14.76" transform="translate(299.93 208.783)"/><g transform="translate(68.155 250.326)"><path class="a" d="M421.044,414.473a9.935,9.935,0,0,1-2.4-.334,543.11,543.11,0,0,0-305.828-.935,8.454,8.454,0,0,1-4.742-16.23,560.5,560.5,0,0,1,315.378.935,8.459,8.459,0,0,1-2.4,16.564Z" transform="translate(-101.975 -374.8)"/></g><path class="a" d="M452.409,161.842c-20.1-47.554-74.737-48.222-105.327-41.142-13.024-15.5-31.858-23.71-53.231-23.309-23.51.468-48.422,11.421-63.45,27.05-15.094-15.7-39.94-26.649-63.45-27.05-21.573-.468-40.207,7.814-53.231,23.309-30.589-7.08-85.29-6.412-105.327,41.142-26.115,61.78,18.033,104.124,18.5,104.525a8.481,8.481,0,1,0,11.621-12.356c-.334-.334-36-34.6-14.493-85.624,16.1-38.07,59.576-35.732,79.947-32.326-20.7,45.216,22.642,91.7,24.645,93.839A8.48,8.48,0,0,0,140.9,218.212c-.4-.468-43.079-46.085-16.964-83.086,12.423-17.632,30.122-21.105,42.745-20.838,21.172.4,44.415,11.555,55.3,26.181V210.6a8.482,8.482,0,0,0,16.964,0V140.536c10.887-14.694,34.129-25.781,55.3-26.181,12.757-.334,30.322,3.206,42.745,20.838,25.981,36.868-16.564,82.618-16.964,83.086a8.448,8.448,0,0,0,.334,11.955,8.6,8.6,0,0,0,5.811,2.338,8.44,8.44,0,0,0,6.145-2.6c2-2.137,45.35-48.622,24.645-93.839,20.371-3.406,63.85-5.744,79.947,32.326,21.373,50.626-12.957,84.154-14.493,85.624a8.5,8.5,0,0,0,11.688,12.356C434.309,265.966,478.457,223.622,452.409,161.842Z" transform="translate(0 -32.338)"/><path class="a" d="M349.7,24.445a5.076,5.076,0,1,0,0-10.152h-9.684V5.076a5.076,5.076,0,1,0-10.152,0v9.15h-9.684a5.076,5.076,0,1,0,0,10.152h9.684v20.5a14.76,14.76,0,1,0,10.152,0V24.445Z" transform="translate(-104.601)"/><g transform="translate(175.368 488.696)"><path class="a" d="M371.767,733.7v5.477a2.009,2.009,0,0,1-2,2H264.5a2.009,2.009,0,0,1-2-2V733.7a2.009,2.009,0,0,1,2-2H369.7A2.025,2.025,0,0,1,371.767,733.7Z" transform="translate(-262.5 -731.7)"/><g transform="translate(261.279 7.08)"><path class="a" d="M653.7,743.168v0Z" transform="translate(-653.7 -742.3)"/></g></g><g transform="translate(289.127 461.647)"><path class="a" d="M432.875,691.2Z" transform="translate(-432.825 -691.2)"/><g transform="translate(98.965)"><path class="a" d="M581.067,691.2v.134A.233.233,0,0,1,581,691.2Z" transform="translate(-581 -691.2)"/><path class="a" d="M653.7,702.668v0Z" transform="translate(-605.144 -694.72)"/></g></g><g transform="translate(121.335 779.095)"><path class="a" d="M212.056,1171.309a4.789,4.789,0,0,1-4.809,4.809H182.8a1.2,1.2,0,0,1-1.2-1.2V1167.7a1.2,1.2,0,0,1,1.2-1.2h24.445A4.876,4.876,0,0,1,212.056,1171.309Z" transform="translate(-181.6 -1166.5)"/></g><g transform="translate(132.289 739.69)"><path class="a" d="M202.809,1107.5h20.905a1.2,1.2,0,0,1,1.2,1.2v7.213a1.2,1.2,0,0,1-1.2,1.2H202.809a4.789,4.789,0,0,1-4.809-4.809A4.875,4.875,0,0,1,202.809,1107.5Z" transform="translate(-198 -1107.5)"/></g><g transform="translate(318.23 779.095)"><path class="a" d="M476.4,1171.309a4.789,4.789,0,0,0,4.809,4.809h17.7a1.2,1.2,0,0,0,1.2-1.2V1167.7a1.2,1.2,0,0,0-1.2-1.2h-17.7A4.876,4.876,0,0,0,476.4,1171.309Z" transform="translate(-476.4 -1166.5)"/></g><g transform="translate(304.071 739.69)"><path class="a" d="M455.2,1108.7v7.213a1.2,1.2,0,0,0,1.2,1.2h21.306a4.809,4.809,0,1,0,0-9.618H456.4A1.2,1.2,0,0,0,455.2,1108.7Z" transform="translate(-455.2 -1107.5)"/></g><g transform="translate(23.623 309.434)"><path class="a" d="M443.248,463.768h0a7.03,7.03,0,0,0-2.672-.468H43.048a7.841,7.841,0,0,0-7.748,7.948V822.692c0,76.874,57.906,142.394,138.454,166.439a221.613,221.613,0,0,0,32.259,7.146,241.737,241.737,0,0,0,74.67-.467l4.809-.8c1.6-.267,3.206-.6,4.809-.935,5.41-1.069,10.686-2.4,15.963-3.874l4.809-1.4c1.6-.467,3.206-.935,4.809-1.469a216.178,216.178,0,0,0,37.869-16.43c1.6-.868,3.206-1.737,4.809-2.738,1.069-.6,2.137-1.2,3.139-1.87h.067a191.271,191.271,0,0,0,27.05-19.77h0c36.868-31.792,59.576-75.539,59.576-123.76V471.248A8.13,8.13,0,0,0,443.248,463.768ZM63.886,479.2H422.744a.451.451,0,0,1,.267.8A287.205,287.205,0,0,1,396.5,498.631c-.267.134-.468.267-.735.4a290.394,290.394,0,0,1-152.546,43.279,291.891,291.891,0,0,1-54.166-5.076l-1-.2h0A287.917,287.917,0,0,1,85.191,495.559a2.758,2.758,0,0,0-.735-.468C77.244,490.416,70.3,485.34,63.552,480A.484.484,0,0,1,63.886,479.2Zm227.283,77.275v59.042H246.421v-54.7a2.524,2.524,0,0,1,2.471-2.538c.8,0,1.536-.067,2.338-.067a312.52,312.52,0,0,0,34.53-2.805c1.2-.134,2.338-.334,3.54-.534A1.554,1.554,0,0,1,291.169,556.471Zm-54.3,59.042H192.121V555.937a1.586,1.586,0,0,1,1.87-1.6c2.538.4,6.612,1,7.614,1.2a262.739,262.739,0,0,0,33.127,2.738,2.246,2.246,0,0,1,2.137,2.137ZM50.8,493.422a1.579,1.579,0,0,1,2.6-1.2c6.078,4.809,12.289,9.35,18.634,13.692a4.32,4.32,0,0,1,1.937,3.607V615.513H52.6a1.768,1.768,0,0,1-1.737-1.737Zm129.7,478.21a2.242,2.242,0,0,1-2.872,2.137c-1.336-.4-2.672-.8-3.54-1.069-1.6-.468-1.6-.534-3.206-1.069a201.046,201.046,0,0,1-37.869-17.165c-1.6-.868-3.206-1.87-4.809-2.872h0c-2.872-1.87-4.809-4.408-4.809-6.412v-74.67a2.152,2.152,0,0,1,2.137-2.137h52.7a2.152,2.152,0,0,1,2.137,2.137Zm-2.2-119.285H125.6a2.152,2.152,0,0,1-2.137-2.137V821.757c0-14.961,12.757-27.183,28.519-27.183S180.5,806.73,180.5,821.757v28.385A2.224,2.224,0,0,1,178.3,852.347Zm184.872,88.629a10.328,10.328,0,0,1-4.675,8.549.065.065,0,0,0-.067.067q-2.3,1.6-4.809,3.005a203.3,203.3,0,0,1-37.869,17.9c-1.6.6-2.07.735-3.74,1.269-.668.2-1.87.6-2.939.935a2.206,2.206,0,0,1-2.872-2.137V870.38a2.152,2.152,0,0,1,2.137-2.137h52.7a2.152,2.152,0,0,1,2.137,2.137Zm-2.137-88.629h-52.7a2.152,2.152,0,0,1-2.137-2.137V821.757c0-14.961,12.757-27.183,28.519-27.183,15.7,0,28.519,12.156,28.519,27.183v28.385A2.269,2.269,0,0,1,361.031,852.347Zm71.8-29.721c0,38.938-16.564,74.67-44.148,102.455-1.536,1.6-3.139,3.139-4.809,4.675-1.536,1.469-3.139,2.872-4.809,4.275V821.757c0-23.777-19.97-43.146-44.482-43.146s-44.482,19.3-44.482,43.146V975.439a3,3,0,0,1-2.4,2.939l-2.4.467c-1.6.334-3.206.6-4.809.868a226.284,226.284,0,0,1-74.67.468c-2.338-.334-4.675-.8-7.013-1.2a3,3,0,0,1-2.538-2.939V821.757c0-23.777-19.97-43.146-44.482-43.146s-44.482,19.3-44.482,43.146V936.635c-1.6-1.4-3.206-2.738-4.809-4.141-1.6-1.469-3.206-2.939-4.809-4.475-29.387-28.185-47.153-65.053-47.153-105.393v-53.3a2.329,2.329,0,0,1,1.4-2.137l36.4-15.028,14.293-5.877a2.628,2.628,0,0,0,1.6-2.471V630.473l15.562-14.961,12.89-12.423L161.2,630.54v89.3a1.532,1.532,0,0,0,2.137,1.4l13.825-5.677,63.583-26.248a6.182,6.182,0,0,1,4.876,0L305.6,714.427l13.825,5.811a1.558,1.558,0,0,0,2.137-1.4V630.674l15.762-15.161,12.757-12.222L378.6,630.74V743.414a2.639,2.639,0,0,0,1.6,2.4l14.36,6.011,36.667,15.362a2.237,2.237,0,0,1,1.4,2.07v53.365ZM83.522,515.062a.964.964,0,0,1,1.469-.868c1.8,1.069,4.074,2.471,5.41,3.206a348.714,348.714,0,0,0,32.793,16.43c.935.4,1.8.735,2.672,1.135a3.875,3.875,0,0,1,2.338,3.54v35.4a.99.99,0,0,0,1.269.935,15.544,15.544,0,0,1,3.54-.4,21.3,21.3,0,0,1,3.607.334.938.938,0,0,0,1.135-.935V542.044a1.769,1.769,0,0,1,2.338-1.67c1.6.534,3.473,1.2,3.673,1.336,8.415,3.206,23.777,7.347,34.263,9.551.668.134,1.87.4,2.939.6a1.93,1.93,0,0,1,1.536,1.87v58.24a10.36,10.36,0,0,0,1.67,5.544,15.64,15.64,0,0,1,2.872,8.883V629.4a2.009,2.009,0,0,0,2,2h105.26a2.009,2.009,0,0,0,2-2v-2.672a13.635,13.635,0,0,1,.2-2.271,16.916,16.916,0,0,1,2.471-6.612,10.432,10.432,0,0,0,1.8-5.744V554.334a1.93,1.93,0,0,1,1.536-1.87,304.829,304.829,0,0,0,40.875-11.02,1.769,1.769,0,0,1,2.338,1.67V573.97a.99.99,0,0,0,1.269.935,15.551,15.551,0,0,1,3.54-.4,21.3,21.3,0,0,1,3.607.334.938.938,0,0,0,1.135-.935V539.64a3.766,3.766,0,0,1,2.4-3.54c2-.8,4.007-1.6,5.944-2.471a303.663,303.663,0,0,0,28.853-14.159c2.07-1.135,4.074-2.271,6.078-3.473a.964.964,0,0,1,1.469.868v95.976a7.374,7.374,0,0,0,1.4,4.408,15.5,15.5,0,0,1,3.006,8.683v2.939a2.509,2.509,0,0,0,2.471,2.471h24.311a1.768,1.768,0,0,1,1.737,1.736v7.614a1.768,1.768,0,0,1-1.737,1.737H406.314a2.081,2.081,0,0,0-2.07,2.07v5.477a2.081,2.081,0,0,0,2.07,2.07h24.712a1.768,1.768,0,0,1,1.737,1.736v93.1a2.312,2.312,0,0,1-3.139,2.137l-33.194-13.892a2.688,2.688,0,0,1-1.67-2.471V627.267a8.146,8.146,0,0,0-2.4-5.744l-6.278-6.078-30.189-29.053c-.267-.2-.468-.468-.735-.668a7.914,7.914,0,0,0-9.551,0,3.5,3.5,0,0,0-.735.668l-30.189,29.053-6.278,6.011a7.878,7.878,0,0,0-2.4,5.677v69.327a.46.46,0,0,1-.668.4l-58.708-24.645a8.377,8.377,0,0,0-3.072-.6,7.788,7.788,0,0,0-3.006.6L178.229,697.93a.46.46,0,0,1-.668-.4v-70.4a7.724,7.724,0,0,0-2.471-5.744l-6.078-5.811-30.389-29.254a7.311,7.311,0,0,0-.735-.668,7.915,7.915,0,0,0-9.551,0,3.5,3.5,0,0,0-.735.668L97.147,615.579l-6.078,5.811a8.214,8.214,0,0,0-2.471,5.744V733.195a2.688,2.688,0,0,1-1.67,2.471L53.934,749.291a2.25,2.25,0,0,1-3.139-2.07V653.849a1.768,1.768,0,0,1,1.737-1.737H76.976a2.081,2.081,0,0,0,2.07-2.07v-5.477a2.081,2.081,0,0,0-2.07-2.07H52.532a1.768,1.768,0,0,1-1.737-1.737v-7.614a1.768,1.768,0,0,1,1.737-1.737H76.509a2.509,2.509,0,0,0,2.471-2.471v-6.145a8.34,8.34,0,0,1,2.4-5.877,7.417,7.417,0,0,0,2.07-5.276Zm349.307,98.714a1.768,1.768,0,0,1-1.736,1.736h-21.64V511.655a4.339,4.339,0,0,1,2-3.673c6.545-4.275,12.89-8.816,19.1-13.625a1.4,1.4,0,0,1,2.271,1.135Z" transform="translate(-35.3 -463.3)"/></g></g></svg>